<mxfile host="app.diagrams.net" agent="Mozilla/5.0 (Windows NT 10.0; Win64; x64) AppleWebKit/537.36 (KHTML, like Gecko) Chrome/138.0.0.0 Safari/537.36 Edg/138.0.0.0" version="28.0.7">
  <diagram name="ExamPortal Flow Diagram" id="flow1">
    <mxGraphModel dx="895" dy="466" grid="1" gridSize="10" guides="1" tooltips="1" connect="1" arrows="1" fold="1" page="1" pageScale="1" pageWidth="827" pageHeight="1169" math="0" shadow="0">
      <root>
        <mxCell id="0" />
        <mxCell id="1" parent="0" />
        <mxCell id="2" value="Instructor" style="shape=umlActor;verticalLabelPosition=bottom;verticalAlign=top;" parent="1" vertex="1">
          <mxGeometry x="20" y="20" width="40" height="80" as="geometry" />
        </mxCell>
        <mxCell id="3" value="Student" style="shape=umlActor;verticalLabelPosition=bottom;verticalAlign=top;" parent="1" vertex="1">
          <mxGeometry x="20" y="410" width="40" height="80" as="geometry" />
        </mxCell>
        <mxCell id="4" value="Login" style="rounded=1;whiteSpace=wrap;html=1;" parent="1" vertex="1">
          <mxGeometry x="100" y="20" width="120" height="40" as="geometry" />
        </mxCell>
        <mxCell id="-CgZSrrq2xaIWQzAxi0R-29" style="edgeStyle=orthogonalEdgeStyle;rounded=0;orthogonalLoop=1;jettySize=auto;html=1;" edge="1" parent="1" source="5">
          <mxGeometry relative="1" as="geometry">
            <mxPoint x="430" y="40" as="targetPoint" />
          </mxGeometry>
        </mxCell>
        <mxCell id="5" value="Create/Update - Exam" style="rounded=1;whiteSpace=wrap;html=1;" parent="1" vertex="1">
          <mxGeometry x="250" y="20" width="120" height="40" as="geometry" />
        </mxCell>
        <mxCell id="-CgZSrrq2xaIWQzAxi0R-48" style="edgeStyle=orthogonalEdgeStyle;rounded=0;orthogonalLoop=1;jettySize=auto;html=1;exitX=1;exitY=0.5;exitDx=0;exitDy=0;entryX=0;entryY=0.5;entryDx=0;entryDy=0;" edge="1" parent="1" source="6" target="7">
          <mxGeometry relative="1" as="geometry" />
        </mxCell>
        <mxCell id="6" value="Add Questions" style="rounded=1;whiteSpace=wrap;html=1;" parent="1" vertex="1">
          <mxGeometry x="400" y="20" width="120" height="40" as="geometry" />
        </mxCell>
        <mxCell id="-CgZSrrq2xaIWQzAxi0R-66" style="edgeStyle=orthogonalEdgeStyle;rounded=0;orthogonalLoop=1;jettySize=auto;html=1;entryX=0;entryY=0.5;entryDx=0;entryDy=0;" edge="1" parent="1" source="7" target="-CgZSrrq2xaIWQzAxi0R-65">
          <mxGeometry relative="1" as="geometry" />
        </mxCell>
        <mxCell id="7" value="Register Students/ Exam" style="rounded=1;whiteSpace=wrap;html=1;" parent="1" vertex="1">
          <mxGeometry x="560" y="20" width="140" height="40" as="geometry" />
        </mxCell>
        <mxCell id="-CgZSrrq2xaIWQzAxi0R-71" style="edgeStyle=orthogonalEdgeStyle;rounded=0;orthogonalLoop=1;jettySize=auto;html=1;exitX=0.5;exitY=1;exitDx=0;exitDy=0;" edge="1" parent="1" source="8">
          <mxGeometry relative="1" as="geometry">
            <mxPoint x="160" y="680" as="targetPoint" />
          </mxGeometry>
        </mxCell>
        <mxCell id="-CgZSrrq2xaIWQzAxi0R-73" value="if result is declared" style="edgeLabel;html=1;align=center;verticalAlign=middle;resizable=0;points=[];" vertex="1" connectable="0" parent="-CgZSrrq2xaIWQzAxi0R-71">
          <mxGeometry x="0.4384" relative="1" as="geometry">
            <mxPoint as="offset" />
          </mxGeometry>
        </mxCell>
        <mxCell id="8" value="Login" style="rounded=1;whiteSpace=wrap;html=1;" parent="1" vertex="1">
          <mxGeometry x="100" y="410" width="120" height="40" as="geometry" />
        </mxCell>
        <mxCell id="-CgZSrrq2xaIWQzAxi0R-54" style="edgeStyle=orthogonalEdgeStyle;rounded=0;orthogonalLoop=1;jettySize=auto;html=1;exitX=1;exitY=0.5;exitDx=0;exitDy=0;entryX=0;entryY=0.5;entryDx=0;entryDy=0;" edge="1" parent="1" source="9" target="-CgZSrrq2xaIWQzAxi0R-51">
          <mxGeometry relative="1" as="geometry" />
        </mxCell>
        <mxCell id="9" value="Start Exam" style="rounded=1;whiteSpace=wrap;html=1;" parent="1" vertex="1">
          <mxGeometry x="250" y="410" width="120" height="40" as="geometry" />
        </mxCell>
        <mxCell id="10" value="Answer Questions" style="rounded=1;whiteSpace=wrap;html=1;" parent="1" vertex="1">
          <mxGeometry x="550" y="410" width="140" height="40" as="geometry" />
        </mxCell>
        <mxCell id="11" value="Submit Exam" style="rounded=1;whiteSpace=wrap;html=1;" parent="1" vertex="1">
          <mxGeometry x="740" y="410" width="120" height="40" as="geometry" />
        </mxCell>
        <mxCell id="12" value="Random Question Generator" style="ellipse;whiteSpace=wrap;html=1;fillColor=#d0e1f9;" parent="1" vertex="1">
          <mxGeometry x="220" y="525" width="180" height="60" as="geometry" />
        </mxCell>
        <mxCell id="14" value="PostgreSQL" style="shape=cylinder;whiteSpace=wrap;html=1;" parent="1" vertex="1">
          <mxGeometry x="360" y="610" width="100" height="60" as="geometry" />
        </mxCell>
        <mxCell id="15" value="MinIO (Images)" style="shape=cube;whiteSpace=wrap;html=1;" parent="1" vertex="1">
          <mxGeometry x="540" y="555" width="120" height="60" as="geometry" />
        </mxCell>
        <mxCell id="16" style="endArrow=block;html=1;" parent="1" source="2" target="4" edge="1">
          <mxGeometry relative="1" as="geometry" />
        </mxCell>
        <mxCell id="17" style="endArrow=block;html=1;" parent="1" source="4" target="5" edge="1">
          <mxGeometry relative="1" as="geometry" />
        </mxCell>
        <mxCell id="18" style="endArrow=block;html=1;" parent="1" source="5" target="6" edge="1">
          <mxGeometry relative="1" as="geometry" />
        </mxCell>
        <mxCell id="20" style="endArrow=block;html=1;" parent="1" source="3" target="8" edge="1">
          <mxGeometry relative="1" as="geometry" />
        </mxCell>
        <mxCell id="21" style="endArrow=block;html=1;" parent="1" source="8" target="9" edge="1">
          <mxGeometry relative="1" as="geometry" />
        </mxCell>
        <mxCell id="23" style="endArrow=block;html=1;" parent="1" source="10" target="11" edge="1">
          <mxGeometry relative="1" as="geometry" />
        </mxCell>
        <mxCell id="24" style="endArrow=block;html=1;startArrow=classic;startFill=1;" parent="1" source="9" target="12" edge="1">
          <mxGeometry relative="1" as="geometry" />
        </mxCell>
        <mxCell id="-CgZSrrq2xaIWQzAxi0R-53" value="create question set and return success message" style="edgeLabel;html=1;align=center;verticalAlign=middle;resizable=0;points=[];" vertex="1" connectable="0" parent="24">
          <mxGeometry x="-0.103" y="3" relative="1" as="geometry">
            <mxPoint as="offset" />
          </mxGeometry>
        </mxCell>
        <mxCell id="26" style="endArrow=block;html=1;" parent="1" source="12" target="14" edge="1">
          <mxGeometry relative="1" as="geometry" />
        </mxCell>
        <mxCell id="-CgZSrrq2xaIWQzAxi0R-28" value="PostgreSQL" style="shape=cylinder;whiteSpace=wrap;html=1;" vertex="1" parent="1">
          <mxGeometry x="210" y="250" width="100" height="60" as="geometry" />
        </mxCell>
        <mxCell id="-CgZSrrq2xaIWQzAxi0R-30" style="edgeStyle=orthogonalEdgeStyle;rounded=0;orthogonalLoop=1;jettySize=auto;html=1;entryX=0.15;entryY=0.05;entryDx=0;entryDy=0;entryPerimeter=0;fillColor=#008a00;strokeColor=#005700;" edge="1" parent="1" source="5" target="-CgZSrrq2xaIWQzAxi0R-28">
          <mxGeometry relative="1" as="geometry" />
        </mxCell>
        <mxCell id="-CgZSrrq2xaIWQzAxi0R-32" style="edgeStyle=orthogonalEdgeStyle;rounded=0;orthogonalLoop=1;jettySize=auto;html=1;entryX=0.85;entryY=0.05;entryDx=0;entryDy=0;entryPerimeter=0;" edge="1" parent="1" source="7" target="-CgZSrrq2xaIWQzAxi0R-28">
          <mxGeometry relative="1" as="geometry">
            <Array as="points">
              <mxPoint x="620" y="240" />
              <mxPoint x="295" y="240" />
            </Array>
          </mxGeometry>
        </mxCell>
        <mxCell id="-CgZSrrq2xaIWQzAxi0R-35" style="edgeStyle=orthogonalEdgeStyle;rounded=0;orthogonalLoop=1;jettySize=auto;html=1;entryX=0;entryY=0.5;entryDx=0;entryDy=0;" edge="1" parent="1" source="-CgZSrrq2xaIWQzAxi0R-33" target="-CgZSrrq2xaIWQzAxi0R-34">
          <mxGeometry relative="1" as="geometry">
            <Array as="points">
              <mxPoint x="417" y="150" />
              <mxPoint x="460" y="150" />
              <mxPoint x="460" y="180" />
            </Array>
          </mxGeometry>
        </mxCell>
        <mxCell id="-CgZSrrq2xaIWQzAxi0R-33" value="New" style="rounded=1;whiteSpace=wrap;html=1;" vertex="1" parent="1">
          <mxGeometry x="360" y="90" width="114" height="40" as="geometry" />
        </mxCell>
        <mxCell id="-CgZSrrq2xaIWQzAxi0R-37" style="edgeStyle=orthogonalEdgeStyle;rounded=0;orthogonalLoop=1;jettySize=auto;html=1;" edge="1" parent="1" source="-CgZSrrq2xaIWQzAxi0R-34" target="-CgZSrrq2xaIWQzAxi0R-28">
          <mxGeometry relative="1" as="geometry">
            <Array as="points">
              <mxPoint x="490" y="210" />
              <mxPoint x="260" y="210" />
            </Array>
          </mxGeometry>
        </mxCell>
        <mxCell id="-CgZSrrq2xaIWQzAxi0R-34" value="Update" style="rounded=1;whiteSpace=wrap;html=1;" vertex="1" parent="1">
          <mxGeometry x="430" y="160" width="120" height="40" as="geometry" />
        </mxCell>
        <mxCell id="-CgZSrrq2xaIWQzAxi0R-36" style="edgeStyle=orthogonalEdgeStyle;rounded=0;orthogonalLoop=1;jettySize=auto;html=1;exitX=0.75;exitY=1;exitDx=0;exitDy=0;entryX=0.583;entryY=0.055;entryDx=0;entryDy=0;entryPerimeter=0;" edge="1" parent="1" source="6" target="-CgZSrrq2xaIWQzAxi0R-34">
          <mxGeometry relative="1" as="geometry" />
        </mxCell>
        <mxCell id="-CgZSrrq2xaIWQzAxi0R-39" value="MinIO (Images)" style="shape=cube;whiteSpace=wrap;html=1;" vertex="1" parent="1">
          <mxGeometry x="30" y="200" width="120" height="60" as="geometry" />
        </mxCell>
        <mxCell id="-CgZSrrq2xaIWQzAxi0R-40" style="edgeStyle=orthogonalEdgeStyle;rounded=0;orthogonalLoop=1;jettySize=auto;html=1;exitX=0.25;exitY=1;exitDx=0;exitDy=0;entryX=0;entryY=0;entryDx=50;entryDy=0;entryPerimeter=0;fillColor=#6a00ff;strokeColor=#3700CC;" edge="1" parent="1" source="5" target="-CgZSrrq2xaIWQzAxi0R-39">
          <mxGeometry relative="1" as="geometry" />
        </mxCell>
        <mxCell id="-CgZSrrq2xaIWQzAxi0R-47" value="create folder" style="edgeLabel;html=1;align=center;verticalAlign=middle;resizable=0;points=[];" vertex="1" connectable="0" parent="-CgZSrrq2xaIWQzAxi0R-40">
          <mxGeometry x="-0.7123" relative="1" as="geometry">
            <mxPoint x="-10" y="1" as="offset" />
          </mxGeometry>
        </mxCell>
        <mxCell id="-CgZSrrq2xaIWQzAxi0R-42" style="edgeStyle=orthogonalEdgeStyle;rounded=0;orthogonalLoop=1;jettySize=auto;html=1;exitX=0;exitY=0.5;exitDx=0;exitDy=0;entryX=0.375;entryY=-0.033;entryDx=0;entryDy=0;entryPerimeter=0;" edge="1" parent="1" source="-CgZSrrq2xaIWQzAxi0R-33" target="-CgZSrrq2xaIWQzAxi0R-28">
          <mxGeometry relative="1" as="geometry">
            <Array as="points">
              <mxPoint x="330" y="110" />
              <mxPoint x="330" y="180" />
              <mxPoint x="248" y="180" />
            </Array>
          </mxGeometry>
        </mxCell>
        <mxCell id="-CgZSrrq2xaIWQzAxi0R-43" value="Create Question to get Id" style="edgeLabel;html=1;align=center;verticalAlign=middle;resizable=0;points=[];" vertex="1" connectable="0" parent="-CgZSrrq2xaIWQzAxi0R-42">
          <mxGeometry x="0.0378" y="4" relative="1" as="geometry">
            <mxPoint as="offset" />
          </mxGeometry>
        </mxCell>
        <mxCell id="-CgZSrrq2xaIWQzAxi0R-44" style="edgeStyle=orthogonalEdgeStyle;rounded=0;orthogonalLoop=1;jettySize=auto;html=1;exitX=0.5;exitY=1;exitDx=0;exitDy=0;entryX=0.819;entryY=0.005;entryDx=0;entryDy=0;entryPerimeter=0;" edge="1" parent="1" source="6" target="-CgZSrrq2xaIWQzAxi0R-33">
          <mxGeometry relative="1" as="geometry" />
        </mxCell>
        <mxCell id="-CgZSrrq2xaIWQzAxi0R-45" style="edgeStyle=orthogonalEdgeStyle;rounded=0;orthogonalLoop=1;jettySize=auto;html=1;entryX=0.522;entryY=0.012;entryDx=0;entryDy=0;entryPerimeter=0;fillColor=#e3c800;strokeColor=#B09500;" edge="1" parent="1" source="-CgZSrrq2xaIWQzAxi0R-34" target="-CgZSrrq2xaIWQzAxi0R-39">
          <mxGeometry relative="1" as="geometry">
            <Array as="points">
              <mxPoint x="490" y="140" />
              <mxPoint x="93" y="140" />
            </Array>
          </mxGeometry>
        </mxCell>
        <mxCell id="-CgZSrrq2xaIWQzAxi0R-46" value="Upload Image for questions and options" style="edgeLabel;html=1;align=center;verticalAlign=middle;resizable=0;points=[];" vertex="1" connectable="0" parent="-CgZSrrq2xaIWQzAxi0R-45">
          <mxGeometry x="0.5812" y="2" relative="1" as="geometry">
            <mxPoint x="58" as="offset" />
          </mxGeometry>
        </mxCell>
        <mxCell id="-CgZSrrq2xaIWQzAxi0R-55" style="edgeStyle=orthogonalEdgeStyle;rounded=0;orthogonalLoop=1;jettySize=auto;html=1;exitX=0.5;exitY=1;exitDx=0;exitDy=0;entryX=0.5;entryY=0;entryDx=0;entryDy=0;" edge="1" parent="1" source="-CgZSrrq2xaIWQzAxi0R-51" target="14">
          <mxGeometry relative="1" as="geometry" />
        </mxCell>
        <mxCell id="-CgZSrrq2xaIWQzAxi0R-56" style="edgeStyle=orthogonalEdgeStyle;rounded=0;orthogonalLoop=1;jettySize=auto;html=1;exitX=0.75;exitY=1;exitDx=0;exitDy=0;" edge="1" parent="1" source="-CgZSrrq2xaIWQzAxi0R-51" target="15">
          <mxGeometry relative="1" as="geometry" />
        </mxCell>
        <mxCell id="-CgZSrrq2xaIWQzAxi0R-57" style="edgeStyle=orthogonalEdgeStyle;rounded=0;orthogonalLoop=1;jettySize=auto;html=1;exitX=1;exitY=0.5;exitDx=0;exitDy=0;entryX=0;entryY=0.5;entryDx=0;entryDy=0;" edge="1" parent="1" source="-CgZSrrq2xaIWQzAxi0R-51" target="10">
          <mxGeometry relative="1" as="geometry" />
        </mxCell>
        <mxCell id="-CgZSrrq2xaIWQzAxi0R-51" value="Display Questions" style="rounded=1;whiteSpace=wrap;html=1;" vertex="1" parent="1">
          <mxGeometry x="390" y="410" width="140" height="40" as="geometry" />
        </mxCell>
        <mxCell id="-CgZSrrq2xaIWQzAxi0R-63" style="edgeStyle=orthogonalEdgeStyle;rounded=0;orthogonalLoop=1;jettySize=auto;html=1;entryX=1;entryY=0.7;entryDx=0;entryDy=0;" edge="1" parent="1" source="-CgZSrrq2xaIWQzAxi0R-59" target="-CgZSrrq2xaIWQzAxi0R-28">
          <mxGeometry relative="1" as="geometry">
            <Array as="points">
              <mxPoint x="730" y="290" />
              <mxPoint x="510" y="290" />
              <mxPoint x="510" y="292" />
            </Array>
          </mxGeometry>
        </mxCell>
        <mxCell id="-CgZSrrq2xaIWQzAxi0R-59" value="Evaluation Engine MCQ" style="ellipse;whiteSpace=wrap;html=1;fillColor=#d0f9e1;" vertex="1" parent="1">
          <mxGeometry x="650" y="130" width="160" height="60" as="geometry" />
        </mxCell>
        <mxCell id="-CgZSrrq2xaIWQzAxi0R-67" style="edgeStyle=orthogonalEdgeStyle;rounded=0;orthogonalLoop=1;jettySize=auto;html=1;exitX=0.5;exitY=1;exitDx=0;exitDy=0;" edge="1" parent="1" source="-CgZSrrq2xaIWQzAxi0R-65" target="-CgZSrrq2xaIWQzAxi0R-59">
          <mxGeometry relative="1" as="geometry" />
        </mxCell>
        <mxCell id="-CgZSrrq2xaIWQzAxi0R-65" value="Result" style="rounded=1;whiteSpace=wrap;html=1;" vertex="1" parent="1">
          <mxGeometry x="750" y="20" width="140" height="40" as="geometry" />
        </mxCell>
        <mxCell id="-CgZSrrq2xaIWQzAxi0R-69" style="edgeStyle=orthogonalEdgeStyle;rounded=0;orthogonalLoop=1;jettySize=auto;html=1;entryX=1;entryY=0.7;entryDx=0;entryDy=0;" edge="1" parent="1" source="-CgZSrrq2xaIWQzAxi0R-68" target="-CgZSrrq2xaIWQzAxi0R-28">
          <mxGeometry relative="1" as="geometry">
            <Array as="points">
              <mxPoint x="907" y="290" />
              <mxPoint x="569" y="290" />
              <mxPoint x="569" y="292" />
            </Array>
          </mxGeometry>
        </mxCell>
        <mxCell id="-CgZSrrq2xaIWQzAxi0R-68" value="Evaluation Engine Subjective" style="ellipse;whiteSpace=wrap;html=1;fillColor=#d0f9e1;" vertex="1" parent="1">
          <mxGeometry x="827" y="130" width="160" height="60" as="geometry" />
        </mxCell>
        <mxCell id="-CgZSrrq2xaIWQzAxi0R-70" style="edgeStyle=orthogonalEdgeStyle;rounded=0;orthogonalLoop=1;jettySize=auto;html=1;exitX=0.5;exitY=1;exitDx=0;exitDy=0;entryX=0.547;entryY=-0.009;entryDx=0;entryDy=0;entryPerimeter=0;" edge="1" parent="1" source="-CgZSrrq2xaIWQzAxi0R-65" target="-CgZSrrq2xaIWQzAxi0R-68">
          <mxGeometry relative="1" as="geometry" />
        </mxCell>
        <mxCell id="-CgZSrrq2xaIWQzAxi0R-74" style="edgeStyle=orthogonalEdgeStyle;rounded=0;orthogonalLoop=1;jettySize=auto;html=1;exitX=1;exitY=0.5;exitDx=0;exitDy=0;entryX=0;entryY=0.5;entryDx=0;entryDy=0;" edge="1" parent="1" source="-CgZSrrq2xaIWQzAxi0R-72" target="14">
          <mxGeometry relative="1" as="geometry" />
        </mxCell>
        <mxCell id="-CgZSrrq2xaIWQzAxi0R-72" value="exam valuation&amp;nbsp;" style="rounded=1;whiteSpace=wrap;html=1;" vertex="1" parent="1">
          <mxGeometry x="100" y="680" width="120" height="40" as="geometry" />
        </mxCell>
        <mxCell id="-CgZSrrq2xaIWQzAxi0R-75" style="edgeStyle=orthogonalEdgeStyle;rounded=0;orthogonalLoop=1;jettySize=auto;html=1;entryX=0;entryY=0;entryDx=70;entryDy=60;entryPerimeter=0;" edge="1" parent="1" source="-CgZSrrq2xaIWQzAxi0R-72" target="15">
          <mxGeometry relative="1" as="geometry" />
        </mxCell>
      </root>
    </mxGraphModel>
  </diagram>
</mxfile>
